PathFileType	4	(X/Y/Z)	path1_14_0-593.trc
DataRate	CameraRate	NumFrames	NumMarkers	Units	OrigDataRate	OrigDataStartFrame	OrigNumFrames
30	30	6	22	m	30	444	593
Frame#	Time	Hip			RHip			RKnee			RAnkle			RBigToe			RSmallToe			RHeel			LHip			LKnee			LAnkle			LBigToe			LSmallToe			LHeel			Neck			Head			Nose			RShoulder			RElbow			RWrist			LShoulder			LElbow			LWrist		
		X1	Y1	Z1	X2	Y2	Z2	X3	Y3	Z3	X4	Y4	Z4	X5	Y5	Z5	X6	Y6	Z6	X7	Y7	Z7	X8	Y8	Z8	X9	Y9	Z9	X10	Y10	Z10	X11	Y11	Z11	X12	Y12	Z12	X13	Y13	Z13	X14	Y14	Z14	X15	Y15	Z15	X16	Y16	Z16	X17	Y17	Z17	X18	Y18	Z18	X19	Y19	Z19	X20	Y20	Z20	X21	Y21	Z21	X22	Y22	Z22
445	14.833333333333334	-0.33279032668722663	0.8151942536980537	0.6852612664373929	-0.3542290736071432	0.7812931755853751	0.5888937274818824	-0.4919324733775663	0.44693309915303636	0.6050027355534107	-0.5843205038184939	0.09671741140288226	0.6483690214208772	-0.7711267725676472	0.05149237554403769	0.6478360374343579	-0.7428705964105363	0.03535829954365185	0.6014032769545754	-0.5592365991680024	0.024856954810691646	0.658938325323564	-0.3075428739660519	0.7769038580815409	0.7772879248186892	-0.2211107317619601	0.43971051909905773	0.7555363795898936	0.04021890459662219	0.18409027987026771	0.7133436490218044	-0.051461971441342534	0.014944309568971127	0.7181001327213421	-0.013373909060016268	0.028936529851944944	0.7641760439602057	0.1181445337281922	0.15637509363559682	0.6947323626135804	-0.3788701765133473	1.4218508491920983	0.7016153767481041	-0.4600881633807106	1.666248150717272	0.6897096879059665	-0.45384283321787555	1.513581164834097	0.6229597462076014	-0.3423661026960258	1.3319203064010583	0.5000186543830715	-0.23000814424321	1.070431685971501	0.4774899179521429	-0.2136760110634386	0.8251953740403865	0.43520980242948837	-0.3668831202254251	1.328225993151843	0.8779629467001591	-0.4271692135826181	1.0636718909323433	0.9356988134510782	-0.5858307886452164	0.8661064797229656	0.9232865183313761
446	14.866666666666667	-0.38221439947063623	0.8160789676816451	0.6849295610680538	-0.40229522851828026	0.7815388694071143	0.5903332543372793	-0.529444077093124	0.44781023112909263	0.6108534841361217	-0.5949725549625926	0.0929452600277161	0.65328272958701	-0.7783337296826043	0.03866457380449188	0.6523379143566712	-0.752809353410072	0.022565064430547094	0.6081965639840327	-0.5652241998077181	0.023065216637930586	0.6656675037718713	-0.3607793901739007	0.7772608721749651	0.7754647362762436	-0.29592779984385964	0.4363714264425535	0.7585908376998962	-0.01082015558777108	0.20730688321366877	0.7232404289636564	-0.0649141315618027	0.015677307798881216	0.7228678073760942	-0.030544648328858486	0.033904899096302496	0.7672101920967357	0.07357535774466037	0.19009760443251295	0.7066581395274283	-0.42253360837074583	1.4228908398120965	0.6987876831722108	-0.501315240865457	1.6653717333494233	0.6838929167485966	-0.4755989723136048	1.5083437520377276	0.5935386020531151	-0.3884230412003459	1.3323026711299044	0.49823728894052477	-0.2786894752662785	1.0691758334378418	0.47762463028486324	-0.265591093260632	0.824353046368572	0.4357064862997321	-0.410341973243184	1.3308006029140873	0.8754932170630159	-0.46693888258202637	1.0645999389842429	0.9327054736376574	-0.6221275142592515	0.8673662233019283	0.9197541372356601
447	14.9	-0.4307582740206399	0.8189002104283963	0.685335264007055	-0.44859775680294645	0.7845012310368421	0.5918294906349186	-0.5611154860234855	0.45075017225762115	0.6152089157155155	-0.6001106622596026	0.09059710943225284	0.6559201659801024	-0.7813973643197288	0.029218021933770308	0.6548571949876557	-0.755377180042023	0.013154371677485776	0.611352996384032	-0.5664408595286019	0.022030856961656128	0.6710232527217627	-0.4136606663746716	0.7803413408534069	0.7748453854251978	-0.3789257858302402	0.43571117367967355	0.7644830946444494	-0.07616305356818226	0.22877590980708298	0.733877118212952	-0.0964467005075306	0.018226355020811047	0.7297686266374788	-0.06563645914572554	0.04049098155833352	0.773083802631962	0.013460263968827683	0.2202509768644222	0.7185270325249009	-0.4659326390791848	1.4258688613854404	0.6963482725207689	-0.5423835730888599	1.6659919877377873	0.6793034885964753	-0.508451038030184	1.507280726625415	0.5767210367507724	-0.43451593654360765	1.3349963202501312	0.4969564833915972	-0.33064524126382194	1.0692490008861346	0.47780454165667335	-0.32306873989511437	0.8245244194701574	0.43562762092954854	-0.4523149131599446	1.33472940101712	0.8743034896498039	-0.5032415712714379	1.0665921872160715	0.9297525937689645	-0.653142472448382	0.8682168075912367	0.9184377566675338
448	14.933333333333334	-0.4780450619809297	0.8230186133481663	0.6866312391610843	-0.49263127190591904	0.7893905028715487	0.5934531494297924	-0.5867207006792535	0.45419387849977616	0.6181529342967428	-0.6021679413246195	0.0895729485081138	0.6569353138071644	-0.7823672263094306	0.023133323755473122	0.6560956463361008	-0.7533965105471903	0.007503045428479484	0.6117805093794964	-0.5648156744798273	0.021823036802321092	0.6744220803076003	-0.4652350733564053	0.7856218069321897	0.775781166799207	-0.46569631974095566	0.4392574672209757	0.7720756064451049	-0.15339315776215737	0.24510678225975308	0.7436654624581566	-0.15197048718686973	0.022479368758322668	0.7392772624921247	-0.12384942910156804	0.047859569525006536	0.7820025590104589	-0.060970334071008436	0.24158300863560234	0.7292766373987062	-0.5087337347160338	1.4303375288345372	0.694495043113823	-0.5854424279162502	1.6687096492627471	0.6760663461707737	-0.5535158606185406	1.51044555430043	0.5747105862459448	-0.4798968313480264	1.3396102529737273	0.4961964997004146	-0.3851772446982271	1.0700041731047683	0.4781933349183447	-0.3852745899952009	0.8254940267516553	0.4351076445397801	-0.4928397501376837	1.3394425073837921	0.874218310006714	-0.5361948733224184	1.0692570194803492	0.9272566423091928	-0.6802329760663425	0.8683955268527751	0.9193720673007906
449	14.966666666666669	-0.5240985358296113	0.8277914827391925	0.6887608829017575	-0.5344442152656208	0.7953969332259837	0.5952150931411718	-0.6073295022316715	0.45742312975000315	0.6202445162884438	-0.6028576558961681	0.08969167834368018	0.657045083461163	-0.7824907280291892	0.01972011780902204	0.6565197554446683	-0.7495960256648585	0.0050764969882999035	0.6108242391479474	-0.5615398100830316	0.022487951066573794	0.6755642693100768	-0.514977421898964	0.7923390672977779	0.7781949306722199	-0.551192231639633	0.4469636335013856	0.7797570612689572	-0.23954168405681311	0.2529965513787137	0.7514049338980171	-0.23491455973831307	0.02732323782084999	0.7514520664873161	-0.2081180513236034	0.05447054832020883	0.793573521158752	-0.14795180036773295	0.24967468338841006	0.7386145536178791	-0.550636426849652	1.435669662227889	0.6932872809949899	-0.6304184187395798	1.6737593461557765	0.674333308132916	-0.608086796476187	1.5169790821149531	0.585433810412587	-0.5239410261386943	1.3455187181801052	0.4959379716362453	-0.4415993580481125	1.0707708593074952	0.4787666586158721	-0.45116396632249545	0.8272924834595535	0.43436264904178146	-0.5320170347960501	1.3445185947624574	0.8748253526771539	-0.566004834786868	1.0722799824692233	0.9255941302555265	-0.7043815320387159	0.8676342320055921	0.9220643272809247
450	15.0	-0.5688542741846991	0.8327019473976933	0.6914719033035522	-0.5742505194147235	0.8019632463019507	0.5968616874817868	-0.6249121666739746	0.4605839422528254	0.6220432939172709	-0.6031171972996016	0.09089612156627354	0.6568052705511652	-0.782273671748772	0.018038172498597682	0.656326967498937	-0.745819930854539	0.004871763459236139	0.6095227425927795	-0.557633186388482	0.023958292936936864	0.6747028863452439	-0.5625617092975211	0.7997550794258711	0.7816936127341432	-0.6308242227255642	0.4573353472573	0.7869450195913231	-0.33287312335715524	0.2498450449065242	0.7573605974890798	-0.3449526195074898	0.03118295032838829	0.7657528587444462	-0.3179034227077347	0.058709575316344464	0.8072519944887175	-0.2460356037924495	0.24208073775712538	0.7470430472697905	-0.5915827227159987	1.4411159113705398	0.6927272413414762	-0.6754305101291814	1.6804269475165738	0.6749349227461242	-0.666745482959802	1.5252848363350922	0.6034787975010718	-0.5664382669172221	1.3519265571260242	0.4961758541463366	-0.4992440820858428	1.0712679252139732	0.4791147533755176	-0.5198001608117514	0.8301096425101311	0.4333133817507581	-0.5699380952608306	1.3497519495817931	0.8756908335122453	-0.5931351564006078	1.0754553644673994	0.9250123885480438	-0.7256218241516823	0.8656805709373162	0.9260165339633375
